<svg width="92" height="32" viewBox="0 0 92 32" fill="none" xmlns="http://www.w3.org/2000/svg">
<path d="M92 0L24.6938 28.4766C19.1124 30.823 14.4242 32 10.633 32C6.33967 32 3.22315 30.5068 1.29113 27.5167C0.0759536 25.597 -0.280549 23.163 0.217788 20.2109C0.716125 17.2589 2.04247 14.1164 4.18915 10.7721C5.97933 8.06761 8.91186 4.51375 12.9944 0.106654C11.6096 2.27274 10.5942 4.65109 9.98903 7.14581C8.91569 11.6977 9.8817 15.0382 12.8871 17.1713C14.3169 18.1655 16.2834 18.6644 18.7904 18.6644C20.7914 18.6644 23.0455 18.3445 25.5525 17.7046L92 0Z" fill="white"/>
</svg>
