<svg width="38" height="38" viewBox="0 0 38 38" fill="none" xmlns="http://www.w3.org/2000/svg">
<path fill-rule="evenodd" clip-rule="evenodd" d="M11.9438 31.5904C13.0743 31.5904 13.9942 32.5087 13.9942 33.6392C13.9942 34.7697 13.0743 35.6896 11.9438 35.6896C10.8133 35.6896 9.89495 34.7697 9.89495 33.6392C9.89495 32.5087 10.8133 31.5904 11.9438 31.5904ZM29.8043 31.5904C30.9363 31.5904 31.8563 32.5087 31.8563 33.6392C31.8563 34.7697 30.9363 35.6896 29.8043 35.6896C28.6738 35.6896 27.7554 34.7697 27.7554 33.6392C27.7554 32.5087 28.6738 31.5904 29.8043 31.5904ZM5.17377 4.76488L8.4671 5.33488C8.99752 5.4283 9.40127 5.86847 9.44719 6.4068L9.81927 10.8417L11.2029 10.8423C11.4286 10.8424 11.652 10.8425 11.873 10.8426L14.4132 10.8438C14.6157 10.8439 14.8159 10.844 15.0139 10.8441L17.8186 10.8457C17.9948 10.8458 18.1689 10.8459 18.3409 10.846L20.3063 10.8472C20.462 10.8473 20.6157 10.8474 20.7675 10.8475L22.4962 10.8488C22.6327 10.8489 22.7673 10.849 22.9001 10.8491L24.4074 10.8504C24.5259 10.8505 24.6427 10.8507 24.7578 10.8508L25.7485 10.8517C25.8536 10.8519 25.9571 10.852 26.059 10.8521L27.2062 10.8534C27.2956 10.8535 27.3836 10.8536 27.4701 10.8537L28.4387 10.8551C28.5138 10.8552 28.5875 10.8553 28.6599 10.8554L29.2755 10.8565C29.34 10.8566 29.4033 10.8567 29.4653 10.8568L30.151 10.8582C30.2035 10.8583 30.2548 10.8584 30.3049 10.8585L30.727 10.8596C30.7707 10.8597 30.8133 10.8598 30.855 10.86L31.3074 10.8614C31.3413 10.8615 31.3743 10.8616 31.4064 10.8617L31.6721 10.8628C31.6991 10.8629 31.7253 10.8631 31.7507 10.8632L32.0194 10.8647C32.0389 10.8648 32.0578 10.8649 32.0759 10.865L32.2224 10.8661C32.2369 10.8663 32.2507 10.8664 32.264 10.8665L32.3695 10.8676C32.3797 10.8678 32.3894 10.8679 32.3986 10.868L32.4704 10.8691C32.4771 10.8693 32.4835 10.8694 32.4896 10.8695L32.5349 10.8707C32.5391 10.8708 32.5429 10.8709 32.5466 10.8711L32.5795 10.8726C32.5815 10.8727 32.5833 10.8729 32.5851 10.873C32.6005 10.8744 32.6027 10.8747 32.605 10.875C33.4869 11.0032 34.2628 11.464 34.7916 12.1733C35.3204 12.8811 35.5421 13.7535 35.4154 14.6275L33.9129 25.011C33.6294 26.987 31.9131 28.4769 29.9181 28.4769H12.6265C10.5413 28.4769 8.77585 26.8492 8.60644 24.7671L7.1561 7.5183L4.77002 7.10663C4.12244 6.99263 3.69019 6.37988 3.80102 5.7323C3.91502 5.08472 4.54044 4.66355 5.17377 4.76488ZM10.8852 13.2173L10.0188 13.2167L10.9735 24.5724C11.0432 25.4464 11.7573 26.1019 12.6297 26.1019H29.9149C30.7399 26.1019 31.4444 25.4876 31.5616 24.6721L33.0658 14.2871C33.1006 14.0401 33.0389 13.7931 32.8884 13.5936C32.7396 13.3925 32.5211 13.2626 32.2741 13.2278C32.2627 13.2282 32.2353 13.2286 32.1928 13.229L32.0206 13.23C31.9846 13.2301 31.945 13.2303 31.9019 13.2304L31.0049 13.2318C30.9292 13.2318 30.8505 13.2319 30.7689 13.2319L28.66 13.2318C28.5423 13.2318 28.4224 13.2317 28.3004 13.2317L25.8935 13.2302C25.7493 13.2301 25.6035 13.23 25.4563 13.2299L24.0944 13.2288C23.9393 13.2287 23.783 13.2285 23.6256 13.2284L22.1831 13.2271C22.0202 13.227 21.8565 13.2268 21.6921 13.2267L20.6984 13.2258C20.5317 13.2256 20.3645 13.2255 20.1969 13.2253L18.6806 13.2239C18.5115 13.2237 18.3423 13.2236 18.1731 13.2234L17.1588 13.2225C16.99 13.2223 16.8213 13.2222 16.653 13.222L15.6473 13.2211C15.4805 13.2209 15.3142 13.2208 15.1484 13.2206L13.6751 13.2194C13.5137 13.2192 13.3532 13.2191 13.1937 13.219L11.3318 13.2176C11.1816 13.2175 11.0327 13.2174 10.8852 13.2173ZM27.3719 16.6942C28.0274 16.6942 28.5594 17.2262 28.5594 17.8817C28.5594 18.5372 28.0274 19.0692 27.3719 19.0692H22.9829C22.3259 19.0692 21.7954 18.5372 21.7954 17.8817C21.7954 17.2262 22.3259 16.6942 22.9829 16.6942H27.3719Z" fill="white"/>
<circle cx="33.5" cy="10.5" r="4.5" fill="#A8E910"/>
</svg>
